<svg xmlns="http://www.w3.org/2000/svg" xmlns:xlink="http://www.w3.org/1999/xlink" width="1080" zoomAndPan="magnify" viewBox="0 0 810 809.999993" height="1080" preserveAspectRatio="xMidYMid meet" version="1.0">
<defs><clipPath id="f138b9214f"><path d="M 35.101562 65.15625 L 774.601562 65.15625 L 774.601562 744.65625 L 35.101562 744.65625 Z M 35.101562 65.15625 " clip-rule="nonzero"/></clipPath></defs><g clip-path="url(#f138b9214f)">
<path fill="#ed373d" d="M 774.464844 537.5 L 774.464844 744.84375 L 642.054688 744.84375 L 642.054688 592.230469 L 500.175781 447.46875 L 641.035156 306.625 L 641.035156 217.226562 C 641.035156 205.894531 631.835938 197.234375 620.519531 197.234375 L 471.03125 197.234375 L 471.03125 361.3125 L 384.949219 447.425781 L 471.03125 537.5 L 471.03125 744.84375 L 338.949219 744.84375 L 338.949219 197.234375 L 188.320312 197.234375 C 176.988281 197.234375 167.941406 205.894531 167.941406 217.226562 L 167.941406 744.84375 L 35.515625 744.84375 L 35.515625 193.257812 C 35.515625 158.605469 49.230469 126.296875 73.933594 101.9375 C 98.199219 77.988281 131.246094 65.15625 165.34375 65.15625 L 644.457031 65.15625 C 678.824219 65.15625 711.121094 78.273438 735.417969 102.570312 C 759.714844 126.867188 773.101562 158.90625 773.101562 193.257812 L 773.101562 361.3125 L 687.121094 447.425781 Z M 774.464844 537.5 " 
fill-opacity="1" fill-rule="nonzero"/></g></svg>