<svg xmlns="http://www.w3.org/2000/svg" xmlns:xlink="http://www.w3.org/1999/xlink" width="1080" zoomAndPan="magnify" viewBox="0 0 810 809.999993" height="1080" preserveAspectRatio="xMidYMid meet" version="1.0"><defs><g/><clipPath id="90513c91c9"><path d="M 80 36.828125 L 733.207031 36.828125 L 733.207031 636.828125 L 80 636.828125 Z M 80 36.828125 " clip-rule="nonzero"/></clipPath></defs><g clip-path="url(#90513c91c9)"><path fill="#ffffff" d="M 733.035156 454.046875 L 733.035156 637.191406 L 616.078125 637.191406 L 616.078125 502.390625 L 490.757812 374.523438 L 615.175781 250.117188 L 615.175781 171.152344 C 615.175781 161.140625 607.050781 153.492188 597.054688 153.492188 L 465.011719 153.492188 L 465.011719 298.421875 L 388.976562 374.484375 L 465.011719 454.046875 L 465.011719 637.191406 L 348.347656 637.191406 L 348.347656 153.492188 L 215.296875 153.492188 C 205.289062 153.492188 197.296875 161.140625 197.296875 171.152344 L 197.296875 637.191406 L 80.324219 637.191406 L 80.324219 149.980469 C 80.324219 119.371094 92.441406 90.832031 114.261719 69.316406 C 135.695312 48.160156 164.882812 36.828125 195.003906 36.828125 L 618.199219 36.828125 C 648.554688 36.828125 677.082031 48.414062 698.542969 69.875 C 720.003906 91.335938 731.828125 119.636719 731.828125 149.980469 L 731.828125 298.421875 L 655.886719 374.484375 Z M 733.035156 454.046875 " fill-opacity="1" fill-rule="nonzero"/></g><g fill="#ffffff" fill-opacity="1"><g transform="translate(73.52658, 747.824706)"><g><path d="M 18.78125 -70.984375 C 24.132812 -70.984375 28.082031 -69.394531 30.625 -66.21875 C 33.164062 -63.039062 34.4375 -58.773438 34.4375 -53.421875 L 34.4375 -51.515625 L 27.015625 -51.515625 L 27.015625 -53.8125 C 27.015625 -57.03125 26.375 -59.507812 25.09375 -61.25 C 23.820312 -62.988281 21.785156 -63.859375 18.984375 -63.859375 C 16.171875 -63.859375 14.125 -62.988281 12.84375 -61.25 C 11.570312 -59.507812 10.9375 -57.066406 10.9375 -53.921875 C 10.9375 -51.304688 11.519531 -49.023438 12.6875 -47.078125 C 13.863281 -45.140625 15.320312 -43.351562 17.0625 -41.71875 C 18.800781 -40.082031 20.691406 -38.476562 22.734375 -36.90625 C 24.773438 -35.332031 26.664062 -33.609375 28.40625 -31.734375 C 30.15625 -29.859375 31.613281 -27.726562 32.78125 -25.34375 C 33.957031 -22.96875 34.546875 -20.144531 34.546875 -16.875 C 34.546875 -11.507812 33.253906 -7.238281 30.671875 -4.0625 C 28.097656 -0.882812 24.097656 0.703125 18.671875 0.703125 C 13.253906 0.703125 9.269531 -0.882812 6.71875 -4.0625 C 4.175781 -7.238281 2.90625 -11.507812 2.90625 -16.875 L 2.90625 -20.890625 L 10.234375 -20.890625 L 10.234375 -16.46875 C 10.234375 -13.25 10.898438 -10.769531 12.234375 -9.03125 C 13.578125 -7.289062 15.65625 -6.421875 18.46875 -6.421875 C 21.28125 -6.421875 23.351562 -7.289062 24.6875 -9.03125 C 26.03125 -10.769531 26.703125 -13.25 26.703125 -16.46875 C 26.703125 -19.070312 26.113281 -21.328125 24.9375 -23.234375 C 23.769531 -25.148438 22.316406 -26.925781 20.578125 -28.5625 C 18.835938 -30.207031 16.960938 -31.816406 14.953125 -33.390625 C 12.953125 -34.960938 11.082031 -36.6875 9.34375 -38.5625 C 7.601562 -40.4375 6.144531 -42.5625 4.96875 -44.9375 C 3.800781 -47.3125 3.21875 -50.140625 3.21875 -53.421875 C 3.21875 -58.835938 4.488281 -63.117188 7.03125 -66.265625 C 9.570312 -69.410156 13.488281 -70.984375 18.78125 -70.984375 Z M 18.78125 -70.984375 "/></g></g></g><g fill="#ffffff" fill-opacity="1"><g transform="translate(110.875322, 747.824706)"><g><path d="M 3.40625 -53.3125 C 3.40625 -58.738281 4.726562 -63.039062 7.375 -66.21875 C 10.019531 -69.394531 14.054688 -70.984375 19.484375 -70.984375 C 24.898438 -70.984375 28.945312 -69.394531 31.625 -66.21875 C 34.300781 -63.039062 35.640625 -58.738281 35.640625 -53.3125 L 35.640625 -16.96875 C 35.640625 -11.613281 34.300781 -7.328125 31.625 -4.109375 C 28.945312 -0.898438 24.898438 0.703125 19.484375 0.703125 C 14.054688 0.703125 10.019531 -0.898438 7.375 -4.109375 C 4.726562 -7.328125 3.40625 -11.613281 3.40625 -16.96875 Z M 11.140625 -16.5625 C 11.140625 -13.351562 11.828125 -10.859375 13.203125 -9.078125 C 14.578125 -7.304688 16.671875 -6.421875 19.484375 -6.421875 C 22.359375 -6.421875 24.460938 -7.304688 25.796875 -9.078125 C 27.140625 -10.859375 27.8125 -13.351562 27.8125 -16.5625 L 27.8125 -53.71875 C 27.8125 -56.925781 27.140625 -59.414062 25.796875 -61.1875 C 24.460938 -62.96875 22.359375 -63.859375 19.484375 -63.859375 C 16.671875 -63.859375 14.578125 -62.96875 13.203125 -61.1875 C 11.828125 -59.414062 11.140625 -56.925781 11.140625 -53.71875 Z M 11.140625 -16.5625 "/></g></g></g><g fill="#ffffff" fill-opacity="1"><g transform="translate(149.930856, 747.824706)"><g><path d="M 4.015625 0 L 4.015625 -70.28125 L 11.84375 -70.28125 L 11.84375 -7.125 L 31.921875 -7.125 L 31.921875 0 Z M 4.015625 0 "/></g></g></g><g fill="#ffffff" fill-opacity="1"><g transform="translate(183.765592, 747.824706)"><g><path d="M 11.453125 -16.5625 C 11.453125 -13.351562 12.101562 -10.859375 13.40625 -9.078125 C 14.707031 -7.304688 16.796875 -6.421875 19.671875 -6.421875 C 22.484375 -6.421875 24.539062 -7.304688 25.84375 -9.078125 C 27.15625 -10.859375 27.8125 -13.351562 27.8125 -16.5625 L 27.8125 -70.28125 L 35.140625 -70.28125 L 35.140625 -16.96875 C 35.140625 -11.613281 33.867188 -7.3125 31.328125 -4.0625 C 28.785156 -0.820312 24.800781 0.796875 19.375 0.796875 C 14.019531 0.796875 10.070312 -0.820312 7.53125 -4.0625 C 4.988281 -7.3125 3.71875 -11.613281 3.71875 -16.96875 L 3.71875 -70.28125 L 11.453125 -70.28125 Z M 11.453125 -16.5625 "/></g></g></g><g fill="#ffffff" fill-opacity="1"><g transform="translate(222.620319, 747.824706)"><g><path d="M 19.171875 -70.984375 C 24.597656 -70.984375 28.597656 -69.375 31.171875 -66.15625 C 33.753906 -62.945312 35.046875 -58.664062 35.046875 -53.3125 L 35.046875 -46.984375 L 27.609375 -46.984375 L 27.609375 -53.71875 C 27.609375 -56.925781 26.957031 -59.414062 25.65625 -61.1875 C 24.351562 -62.96875 22.257812 -63.859375 19.375 -63.859375 C 16.5625 -63.859375 14.484375 -62.96875 13.140625 -61.1875 C 11.804688 -59.414062 11.140625 -56.925781 11.140625 -53.71875 L 11.140625 -16.5625 C 11.140625 -13.351562 11.804688 -10.859375 13.140625 -9.078125 C 14.484375 -7.304688 16.5625 -6.421875 19.375 -6.421875 C 22.257812 -6.421875 24.351562 -7.304688 25.65625 -9.078125 C 26.957031 -10.859375 27.609375 -13.351562 27.609375 -16.5625 L 27.609375 -25.703125 L 35.046875 -25.703125 L 35.046875 -16.96875 C 35.046875 -11.613281 33.753906 -7.328125 31.171875 -4.109375 C 28.597656 -0.898438 24.597656 0.703125 19.171875 0.703125 C 13.816406 0.703125 9.847656 -0.898438 7.265625 -4.109375 C 4.691406 -7.328125 3.40625 -11.613281 3.40625 -16.96875 L 3.40625 -53.3125 C 3.40625 -55.988281 3.722656 -58.414062 4.359375 -60.59375 C 5.003906 -62.769531 5.976562 -64.628906 7.28125 -66.171875 C 8.582031 -67.710938 10.21875 -68.898438 12.1875 -69.734375 C 14.164062 -70.566406 16.492188 -70.984375 19.171875 -70.984375 Z M 19.171875 -70.984375 "/></g></g></g><g fill="#ffffff" fill-opacity="1"><g transform="translate(260.772254, 747.824706)"><g><path d="M 11.84375 -70.28125 L 11.84375 0 L 4.015625 0 L 4.015625 -70.28125 Z M 11.84375 -70.28125 "/></g></g></g><g fill="#ffffff" fill-opacity="1"><g transform="translate(276.635419, 747.824706)"><g><path d="M 3.40625 -53.3125 C 3.40625 -58.738281 4.726562 -63.039062 7.375 -66.21875 C 10.019531 -69.394531 14.054688 -70.984375 19.484375 -70.984375 C 24.898438 -70.984375 28.945312 -69.394531 31.625 -66.21875 C 34.300781 -63.039062 35.640625 -58.738281 35.640625 -53.3125 L 35.640625 -16.96875 C 35.640625 -11.613281 34.300781 -7.328125 31.625 -4.109375 C 28.945312 -0.898438 24.898438 0.703125 19.484375 0.703125 C 14.054688 0.703125 10.019531 -0.898438 7.375 -4.109375 C 4.726562 -7.328125 3.40625 -11.613281 3.40625 -16.96875 Z M 11.140625 -16.5625 C 11.140625 -13.351562 11.828125 -10.859375 13.203125 -9.078125 C 14.578125 -7.304688 16.671875 -6.421875 19.484375 -6.421875 C 22.359375 -6.421875 24.460938 -7.304688 25.796875 -9.078125 C 27.140625 -10.859375 27.8125 -13.351562 27.8125 -16.5625 L 27.8125 -53.71875 C 27.8125 -56.925781 27.140625 -59.414062 25.796875 -61.1875 C 24.460938 -62.96875 22.359375 -63.859375 19.484375 -63.859375 C 16.671875 -63.859375 14.578125 -62.96875 13.203125 -61.1875 C 11.828125 -59.414062 11.140625 -56.925781 11.140625 -53.71875 Z M 11.140625 -16.5625 "/></g></g></g><g fill="#ffffff" fill-opacity="1"><g transform="translate(315.690952, 747.824706)"><g><path d="M 10.9375 0 L 3.921875 0 L 3.921875 -70.28125 L 13.859375 -70.28125 L 30.125 -19.484375 L 30.125 -70.28125 L 37.046875 -70.28125 L 37.046875 0 L 28.921875 0 L 10.9375 -56.828125 Z M 10.9375 0 "/></g></g></g><g fill="#ffffff" fill-opacity="1"><g transform="translate(356.754488, 747.824706)"><g><path d="M 29.015625 -39.15625 L 29.015625 -32.125 L 11.84375 -32.125 L 11.84375 -7.125 L 32.9375 -7.125 L 32.9375 0 L 4.015625 0 L 4.015625 -70.28125 L 32.9375 -70.28125 L 32.9375 -63.15625 L 11.84375 -63.15625 L 11.84375 -39.15625 Z M 29.015625 -39.15625 "/></g></g></g><g fill="#ffffff" fill-opacity="1"><g transform="translate(392.898438, 747.824706)"><g><path d="M 18.78125 -70.984375 C 24.132812 -70.984375 28.082031 -69.394531 30.625 -66.21875 C 33.164062 -63.039062 34.4375 -58.773438 34.4375 -53.421875 L 34.4375 -51.515625 L 27.015625 -51.515625 L 27.015625 -53.8125 C 27.015625 -57.03125 26.375 -59.507812 25.09375 -61.25 C 23.820312 -62.988281 21.785156 -63.859375 18.984375 -63.859375 C 16.171875 -63.859375 14.125 -62.988281 12.84375 -61.25 C 11.570312 -59.507812 10.9375 -57.066406 10.9375 -53.921875 C 10.9375 -51.304688 11.519531 -49.023438 12.6875 -47.078125 C 13.863281 -45.140625 15.320312 -43.351562 17.0625 -41.71875 C 18.800781 -40.082031 20.691406 -38.476562 22.734375 -36.90625 C 24.773438 -35.332031 26.664062 -33.609375 28.40625 -31.734375 C 30.15625 -29.859375 31.613281 -27.726562 32.78125 -25.34375 C 33.957031 -22.96875 34.546875 -20.144531 34.546875 -16.875 C 34.546875 -11.507812 33.253906 -7.238281 30.671875 -4.0625 C 28.097656 -0.882812 24.097656 0.703125 18.671875 0.703125 C 13.253906 0.703125 9.269531 -0.882812 6.71875 -4.0625 C 4.175781 -7.238281 2.90625 -11.507812 2.90625 -16.875 L 2.90625 -20.890625 L 10.234375 -20.890625 L 10.234375 -16.46875 C 10.234375 -13.25 10.898438 -10.769531 12.234375 -9.03125 C 13.578125 -7.289062 15.65625 -6.421875 18.46875 -6.421875 C 21.28125 -6.421875 23.351562 -7.289062 24.6875 -9.03125 C 26.03125 -10.769531 26.703125 -13.25 26.703125 -16.46875 C 26.703125 -19.070312 26.113281 -21.328125 24.9375 -23.234375 C 23.769531 -25.148438 22.316406 -26.925781 20.578125 -28.5625 C 18.835938 -30.207031 16.960938 -31.816406 14.953125 -33.390625 C 12.953125 -34.960938 11.082031 -36.6875 9.34375 -38.5625 C 7.601562 -40.4375 6.144531 -42.5625 4.96875 -44.9375 C 3.800781 -47.3125 3.21875 -50.140625 3.21875 -53.421875 C 3.21875 -58.835938 4.488281 -63.117188 7.03125 -66.265625 C 9.570312 -69.410156 13.488281 -70.984375 18.78125 -70.984375 Z M 18.78125 -70.984375 "/></g></g></g><g fill="#ffffff" fill-opacity="1"><g transform="translate(430.247196, 747.824706)"><g/></g></g><g fill="#ffffff" fill-opacity="1"><g transform="translate(445.809185, 747.824706)"><g><path d="M 20.484375 -70.28125 C 25.972656 -70.28125 30.003906 -68.722656 32.578125 -65.609375 C 35.160156 -62.503906 36.453125 -58.238281 36.453125 -52.8125 L 36.453125 -17.375 C 36.453125 -11.945312 35.160156 -7.691406 32.578125 -4.609375 C 30.003906 -1.535156 25.972656 0 20.484375 0 L 4.015625 0 L 4.015625 -70.28125 Z M 20.375 -7.125 C 23.1875 -7.125 25.28125 -7.976562 26.65625 -9.6875 C 28.03125 -11.394531 28.71875 -13.851562 28.71875 -17.0625 L 28.71875 -53.21875 C 28.71875 -56.425781 28.03125 -58.882812 26.65625 -60.59375 C 25.28125 -62.300781 23.15625 -63.15625 20.28125 -63.15625 L 11.84375 -63.15625 L 11.84375 -7.125 Z M 20.375 -7.125 "/></g></g></g><g fill="#ffffff" fill-opacity="1"><g transform="translate(485.567492, 747.824706)"><g><path d="M 11.84375 -70.28125 L 11.84375 0 L 4.015625 0 L 4.015625 -70.28125 Z M 11.84375 -70.28125 "/></g></g></g><g fill="#ffffff" fill-opacity="1"><g transform="translate(501.430674, 747.824706)"><g><path d="M 19.171875 -70.984375 C 24.597656 -70.984375 28.597656 -69.375 31.171875 -66.15625 C 33.753906 -62.945312 35.046875 -58.664062 35.046875 -53.3125 L 35.046875 -47.296875 L 27.609375 -47.296875 L 27.609375 -53.71875 C 27.609375 -56.925781 26.957031 -59.414062 25.65625 -61.1875 C 24.351562 -62.96875 22.257812 -63.859375 19.375 -63.859375 C 16.5625 -63.859375 14.484375 -62.96875 13.140625 -61.1875 C 11.804688 -59.414062 11.140625 -56.925781 11.140625 -53.71875 L 11.140625 -16.5625 C 11.140625 -13.351562 11.804688 -10.859375 13.140625 -9.078125 C 14.484375 -7.304688 16.5625 -6.421875 19.375 -6.421875 C 22.257812 -6.421875 24.351562 -7.304688 25.65625 -9.078125 C 26.957031 -10.859375 27.609375 -13.351562 27.609375 -16.5625 L 27.609375 -30.625 L 20.375 -30.625 L 20.375 -37.65625 L 35.046875 -37.65625 L 35.046875 -16.96875 C 35.046875 -11.613281 33.753906 -7.328125 31.171875 -4.109375 C 28.597656 -0.898438 24.597656 0.703125 19.171875 0.703125 C 13.816406 0.703125 9.847656 -0.898438 7.265625 -4.109375 C 4.691406 -7.328125 3.40625 -11.613281 3.40625 -16.96875 L 3.40625 -53.3125 C 3.40625 -55.988281 3.722656 -58.414062 4.359375 -60.59375 C 5.003906 -62.769531 5.976562 -64.628906 7.28125 -66.171875 C 8.582031 -67.710938 10.21875 -68.898438 12.1875 -69.734375 C 14.164062 -70.566406 16.492188 -70.984375 19.171875 -70.984375 Z M 19.171875 -70.984375 "/></g></g></g><g fill="#ffffff" fill-opacity="1"><g transform="translate(539.883786, 747.824706)"><g><path d="M 11.84375 -70.28125 L 11.84375 0 L 4.015625 0 L 4.015625 -70.28125 Z M 11.84375 -70.28125 "/></g></g></g><g fill="#ffffff" fill-opacity="1"><g transform="translate(555.746967, 747.824706)"><g><path d="M 14.25 0 L 14.25 -63.15625 L 1.3125 -63.15625 L 1.3125 -70.28125 L 35.046875 -70.28125 L 35.046875 -63.15625 L 22.09375 -63.15625 L 22.09375 0 Z M 14.25 0 "/></g></g></g><g fill="#ffffff" fill-opacity="1"><g transform="translate(592.19211, 747.824706)"><g><path d="M 11.953125 -14.15625 L 9.234375 0 L 2.015625 0 L 15.46875 -70.28125 L 26.8125 -70.28125 L 40.265625 0 L 32.4375 0 L 29.71875 -14.15625 Z M 12.953125 -20.890625 L 28.609375 -20.890625 L 20.6875 -61.453125 Z M 12.953125 -20.890625 "/></g></g></g><g fill="#ffffff" fill-opacity="1"><g transform="translate(634.560842, 747.824706)"><g><path d="M 4.015625 0 L 4.015625 -70.28125 L 11.84375 -70.28125 L 11.84375 -7.125 L 31.921875 -7.125 L 31.921875 0 Z M 4.015625 0 "/></g></g></g><g fill="#ffffff" fill-opacity="1"><g transform="translate(668.395561, 747.824706)"><g><path d="M 29.015625 -39.15625 L 29.015625 -32.125 L 11.84375 -32.125 L 11.84375 -7.125 L 32.9375 -7.125 L 32.9375 0 L 4.015625 0 L 4.015625 -70.28125 L 32.9375 -70.28125 L 32.9375 -63.15625 L 11.84375 -63.15625 L 11.84375 -39.15625 Z M 29.015625 -39.15625 "/></g></g></g><g fill="#ffffff" fill-opacity="1"><g transform="translate(704.539476, 747.824706)"><g><path d="M 18.78125 -70.984375 C 24.132812 -70.984375 28.082031 -69.394531 30.625 -66.21875 C 33.164062 -63.039062 34.4375 -58.773438 34.4375 -53.421875 L 34.4375 -51.515625 L 27.015625 -51.515625 L 27.015625 -53.8125 C 27.015625 -57.03125 26.375 -59.507812 25.09375 -61.25 C 23.820312 -62.988281 21.785156 -63.859375 18.984375 -63.859375 C 16.171875 -63.859375 14.125 -62.988281 12.84375 -61.25 C 11.570312 -59.507812 10.9375 -57.066406 10.9375 -53.921875 C 10.9375 -51.304688 11.519531 -49.023438 12.6875 -47.078125 C 13.863281 -45.140625 15.320312 -43.351562 17.0625 -41.71875 C 18.800781 -40.082031 20.691406 -38.476562 22.734375 -36.90625 C 24.773438 -35.332031 26.664062 -33.609375 28.40625 -31.734375 C 30.15625 -29.859375 31.613281 -27.726562 32.78125 -25.34375 C 33.957031 -22.96875 34.546875 -20.144531 34.546875 -16.875 C 34.546875 -11.507812 33.253906 -7.238281 30.671875 -4.0625 C 28.097656 -0.882812 24.097656 0.703125 18.671875 0.703125 C 13.253906 0.703125 9.269531 -0.882812 6.71875 -4.0625 C 4.175781 -7.238281 2.90625 -11.507812 2.90625 -16.875 L 2.90625 -20.890625 L 10.234375 -20.890625 L 10.234375 -16.46875 C 10.234375 -13.25 10.898438 -10.769531 12.234375 -9.03125 C 13.578125 -7.289062 15.65625 -6.421875 18.46875 -6.421875 C 21.28125 -6.421875 23.351562 -7.289062 24.6875 -9.03125 C 26.03125 -10.769531 26.703125 -13.25 26.703125 -16.46875 C 26.703125 -19.070312 26.113281 -21.328125 24.9375 -23.234375 C 23.769531 -25.148438 22.316406 -26.925781 20.578125 -28.5625 C 18.835938 -30.207031 16.960938 -31.816406 14.953125 -33.390625 C 12.953125 -34.960938 11.082031 -36.6875 9.34375 -38.5625 C 7.601562 -40.4375 6.144531 -42.5625 4.96875 -44.9375 C 3.800781 -47.3125 3.21875 -50.140625 3.21875 -53.421875 C 3.21875 -58.835938 4.488281 -63.117188 7.03125 -66.265625 C 9.570312 -69.410156 13.488281 -70.984375 18.78125 -70.984375 Z M 18.78125 -70.984375 "/></g></g></g><g fill="#ffffff" fill-opacity="1"><g transform="translate(741.891383, 747.824706)"><g/></g></g></svg>