<svg xmlns="http://www.w3.org/2000/svg" xmlns:xlink="http://www.w3.org/1999/xlink" 
    width="500" height="500" zoomAndPan="magnify" viewBox="0 0 375 374.999991" preserveAspectRatio="xMidYMid meet" version="1.0">
    <defs><g/><clipPath id="0856f3cbf7">
    <path d="M 11.023438 41.457031 L 364 41.457031 L 364 279 L 11.023438 279 Z M 11.023438 41.457031 " clip-rule="nonzero"/></clipPath><clipPath id="3b4324c6c1">
    <path d="M 83 312 L 292 312 L 292 333.207031 L 83 333.207031 Z M 83 312 " clip-rule="nonzero"/></clipPath>
    </defs><g clip-path="url(#0856f3cbf7)">
    <path fill="#33b5a0" d="M 348.570312 229.394531 L 26.425781 229.394531 L 26.425781 58.347656 C 26.425781 57.585938 27.050781 56.96875 27.8125 56.96875 L 347.1875 56.96875 C 347.941406 56.96875 348.570312 57.585938 348.570312 58.347656 Z M 222.808594 262.535156 C 221.152344 264.191406 218.855469 265.222656 216.324219 265.222656 L 158.671875 265.222656 C 153.601562 265.222656 149.496094 261.109375 149.496094 256.042969 C 149.496094 253.507812 150.519531 251.210938 152.183594 249.554688 C 153.839844 247.890625 156.136719 246.867188 158.671875 246.867188 L 216.324219 246.867188 C 221.390625 246.867188 225.496094 250.972656 225.496094 256.042969 C 225.496094 258.574219 224.472656 260.871094 222.808594 262.535156 Z M 347.1875 41.5625 L 27.8125 41.5625 C 18.554688 41.5625 11.019531 49.097656 11.019531 58.347656 L 11.019531 261.539062 C 11.019531 270.792969 18.554688 278.328125 27.8125 278.328125 L 347.1875 278.328125 C 356.441406 278.328125 363.976562 270.792969 363.976562 261.539062 L 363.976562 58.347656 C 363.976562 49.097656 356.441406 41.5625 347.1875 41.5625 " fill-opacity="1" fill-rule="nonzero"/></g>
    <path fill="#33b5a0" d="M 220.875 256.042969 C 220.875 257.257812 220.398438 258.40625 219.542969 259.269531 C 218.679688 260.125 217.539062 260.601562 216.324219 260.601562 L 158.671875 260.601562 C 156.160156 260.601562 154.117188 258.554688 154.117188 256.042969 C 154.117188 254.824219 154.585938 253.683594 155.457031 252.8125 C 156.3125 251.960938 157.453125 251.488281 158.671875 251.488281 L 216.324219 251.488281 C 218.832031 251.488281 220.875 253.527344 220.875 256.042969 " fill-opacity="1" fill-rule="nonzero"/><g clip-path="url(#3b4324c6c1)">
    <path fill="#33b5a0" d="M 291.296875 333.398438 L 83.703125 333.398438 C 87.824219 321.3125 99.296875 312.59375 112.761719 312.59375 L 262.238281 312.59375 C 275.714844 312.59375 287.171875 321.3125 291.296875 333.398438 " fill-opacity="1" fill-rule="nonzero"/></g>
    <path fill="#33b5a0" d="M 227.011719 307.015625 L 147.988281 307.015625 L 155.761719 283.90625 L 219.238281 283.90625 L 227.011719 307.015625 " fill-opacity="1" fill-rule="nonzero"/><g fill="#33b5a0" fill-opacity="1"><g transform="translate(79.071165, 187.758423)"><g>
    <path d="M 99.515625 -102.296875 C 101.953125 -102.296875 104.066406 -101.441406 105.859375 -99.734375 C 107.660156 -98.035156 108.5625 -95.921875 108.5625 -93.390625 L 108.5625 -8.90625 C 108.5625 -6.375 107.734375 -4.253906 106.078125 -2.546875 C 104.429688 -0.847656 102.242188 0 99.515625 0 C 96.796875 0 94.582031 -0.828125 92.875 -2.484375 C 91.175781 -4.140625 90.328125 -6.28125 90.328125 -8.90625 L 90.328125 -67.703125 L 66.25 -30.9375 C 65.28125 -29.769531 64.160156 -28.820312 62.890625 -28.09375 C 61.628906 -27.363281 60.316406 -27.046875 58.953125 -27.140625 C 57.691406 -27.046875 56.425781 -27.363281 55.15625 -28.09375 C 53.894531 -28.820312 52.773438 -29.769531 51.796875 -30.9375 L 27.71875 -69.015625 L 27.71875 -8.90625 C 27.71875 -6.28125 26.941406 -4.140625 25.390625 -2.484375 C 23.835938 -0.828125 21.796875 0 19.265625 0 C 16.828125 0 14.828125 -0.847656 13.265625 -2.546875 C 11.710938 -4.253906 10.9375 -6.375 10.9375 -8.90625 L 10.9375 -93.390625 C 10.9375 -95.816406 11.835938 -97.90625 13.640625 -99.65625 C 15.441406 -101.414062 17.609375 -102.296875 20.140625 -102.296875 C 21.597656 -102.296875 23.054688 -101.929688 24.515625 -101.203125 C 25.972656 -100.472656 27.09375 -99.519531 27.875 -98.34375 L 59.6875 -49.46875 L 92.375 -98.34375 C 93.144531 -99.519531 94.1875 -100.472656 95.5 -101.203125 C 96.8125 -101.929688 98.148438 -102.296875 99.515625 -102.296875 Z M 99.515625 -102.296875 "/></g></g></g><g fill="#33b5a0" fill-opacity="1"><g transform="translate(195.657299, 187.758423)"><g>
    <path d="M 91.0625 -14.296875 C 92.320312 -13.523438 93.316406 -12.503906 94.046875 -11.234375 C 94.773438 -9.972656 95.140625 -8.660156 95.140625 -7.296875 C 95.140625 -5.546875 94.554688 -3.941406 93.390625 -2.484375 C 91.929688 -0.734375 89.691406 0.140625 86.671875 0.140625 C 84.335938 0.140625 82.195312 -0.390625 80.25 -1.453125 C 73.25 -5.441406 69.75 -13.566406 69.75 -25.828125 C 69.75 -29.328125 68.601562 -32.097656 66.3125 -34.140625 C 64.03125 -36.179688 60.75 -37.203125 56.46875 -37.203125 L 29.1875 -37.203125 L 29.1875 -8.90625 C 29.1875 -6.28125 28.476562 -4.140625 27.0625 -2.484375 C 25.65625 -0.828125 23.785156 0 21.453125 0 C 18.628906 0 16.171875 -0.847656 14.078125 -2.546875 C 11.984375 -4.253906 10.9375 -6.375 10.9375 -8.90625 L 10.9375 -93.25 C 10.9375 -95.769531 11.785156 -97.878906 13.484375 -99.578125 C 15.191406 -101.285156 17.3125 -102.140625 19.84375 -102.140625 L 61.875 -102.140625 C 66.925781 -102.140625 71.691406 -100.773438 76.171875 -98.046875 C 80.648438 -95.328125 84.222656 -91.582031 86.890625 -86.8125 C 89.566406 -82.050781 90.90625 -76.703125 90.90625 -70.765625 C 90.90625 -65.898438 89.59375 -61.15625 86.96875 -56.53125 C 84.34375 -51.914062 80.9375 -48.25 76.75 -45.53125 C 82.882812 -41.25 86.242188 -35.507812 86.828125 -28.3125 C 87.117188 -26.75 87.265625 -25.238281 87.265625 -23.78125 C 87.648438 -20.769531 88.035156 -18.609375 88.421875 -17.296875 C 88.816406 -15.984375 89.695312 -14.984375 91.0625 -14.296875 Z M 61.140625 -52.234375 C 62.890625 -52.234375 64.59375 -53.0625 66.25 -54.71875 C 67.90625 -56.375 69.265625 -58.585938 70.328125 -61.359375 C 71.398438 -64.128906 71.9375 -67.117188 71.9375 -70.328125 C 71.9375 -73.054688 71.398438 -75.5625 70.328125 -77.84375 C 69.265625 -80.132812 67.90625 -81.957031 66.25 -83.3125 C 64.59375 -84.675781 62.890625 -85.359375 61.140625 -85.359375 L 29.1875 -85.359375 L 29.1875 -52.234375 Z M 61.140625 -52.234375 "/></g></g></g><g fill="#33b5a0" fill-opacity="1"><g transform="translate(68.415952, 217.076096)"><g>
    <path d="M 4.03125 0.109375 C 3.320312 0.109375 2.703125 -0.00390625 2.171875 -0.234375 C 1.640625 -0.472656 1.226562 -0.800781 0.9375 -1.21875 C 0.65625 -1.644531 0.515625 -2.144531 0.515625 -2.71875 L 0.515625 -2.953125 C 0.515625 -3.097656 0.59375 -3.171875 0.75 -3.171875 L 2.15625 -3.171875 C 2.3125 -3.171875 2.390625 -3.113281 2.390625 -3 L 2.390625 -2.8125 C 2.390625 -2.445312 2.550781 -2.140625 2.875 -1.890625 C 3.207031 -1.648438 3.640625 -1.53125 4.171875 -1.53125 C 4.648438 -1.53125 5.003906 -1.628906 5.234375 -1.828125 C 5.460938 -2.035156 5.578125 -2.285156 5.578125 -2.578125 C 5.578125 -2.796875 5.503906 -2.976562 5.359375 -3.125 C 5.222656 -3.28125 5.03125 -3.410156 4.78125 -3.515625 C 4.539062 -3.628906 4.148438 -3.785156 3.609375 -3.984375 C 2.992188 -4.191406 2.476562 -4.40625 2.0625 -4.625 C 1.65625 -4.84375 1.304688 -5.132812 1.015625 -5.5 C 0.722656 -5.875 0.578125 -6.335938 0.578125 -6.890625 C 0.578125 -7.429688 0.71875 -7.90625 1 -8.3125 C 1.28125 -8.71875 1.671875 -9.023438 2.171875 -9.234375 C 2.671875 -9.453125 3.238281 -9.5625 3.875 -9.5625 C 4.5625 -9.5625 5.175781 -9.441406 5.71875 -9.203125 C 6.257812 -8.960938 6.679688 -8.625 6.984375 -8.1875 C 7.285156 -7.75 7.4375 -7.238281 7.4375 -6.65625 L 7.4375 -6.53125 C 7.4375 -6.375 7.359375 -6.296875 7.203125 -6.296875 L 5.78125 -6.296875 C 5.632812 -6.296875 5.5625 -6.34375 5.5625 -6.4375 L 5.5625 -6.5625 C 5.5625 -6.945312 5.40625 -7.269531 5.09375 -7.53125 C 4.78125 -7.800781 4.351562 -7.9375 3.8125 -7.9375 C 3.375 -7.9375 3.035156 -7.84375 2.796875 -7.65625 C 2.566406 -7.476562 2.453125 -7.234375 2.453125 -6.921875 C 2.453125 -6.691406 2.519531 -6.5 2.65625 -6.34375 C 2.789062 -6.195312 2.992188 -6.0625 3.265625 -5.9375 C 3.546875 -5.8125 3.976562 -5.648438 4.5625 -5.453125 C 5.1875 -5.210938 5.679688 -5.003906 6.046875 -4.828125 C 6.421875 -4.648438 6.753906 -4.378906 7.046875 -4.015625 C 7.335938 -3.660156 7.484375 -3.203125 7.484375 -2.640625 C 7.484375 -2.085938 7.34375 -1.601562 7.0625 -1.1875 C 6.78125 -0.769531 6.378906 -0.445312 5.859375 -0.21875 C 5.335938 0 4.726562 0.109375 4.03125 0.109375 Z M 4.03125 0.109375 "/></g></g></g><g fill="#33b5a0" fill-opacity="1"><g transform="translate(81.343118, 217.076096)"><g>
    <path d="M 4.1875 0.15625 C 3.488281 0.15625 2.867188 0.0078125 2.328125 -0.28125 C 1.796875 -0.570312 1.378906 -0.972656 1.078125 -1.484375 C 0.785156 -2.003906 0.640625 -2.601562 0.640625 -3.28125 L 0.640625 -6.171875 C 0.640625 -6.835938 0.785156 -7.425781 1.078125 -7.9375 C 1.378906 -8.457031 1.796875 -8.859375 2.328125 -9.140625 C 2.867188 -9.421875 3.488281 -9.5625 4.1875 -9.5625 C 4.894531 -9.5625 5.515625 -9.421875 6.046875 -9.140625 C 6.585938 -8.859375 7.007812 -8.457031 7.3125 -7.9375 C 7.613281 -7.425781 7.765625 -6.835938 7.765625 -6.171875 L 7.765625 -3.28125 C 7.765625 -2.601562 7.613281 -2.003906 7.3125 -1.484375 C 7.007812 -0.960938 6.585938 -0.554688 6.046875 -0.265625 C 5.515625 0.015625 4.894531 0.15625 4.1875 0.15625 Z M 4.1875 -1.484375 C 4.6875 -1.484375 5.085938 -1.640625 5.390625 -1.953125 C 5.703125 -2.273438 5.859375 -2.695312 5.859375 -3.21875 L 5.859375 -6.1875 C 5.859375 -6.707031 5.707031 -7.128906 5.40625 -7.453125 C 5.101562 -7.773438 4.695312 -7.9375 4.1875 -7.9375 C 3.695312 -7.9375 3.300781 -7.773438 3 -7.453125 C 2.695312 -7.128906 2.546875 -6.707031 2.546875 -6.1875 L 2.546875 -3.21875 C 2.546875 -2.695312 2.695312 -2.273438 3 -1.953125 C 3.300781 -1.640625 3.695312 -1.484375 4.1875 -1.484375 Z M 4.1875 -1.484375 "/></g></g></g><g fill="#33b5a0" fill-opacity="1"><g transform="translate(94.661932, 217.076096)"><g>
    <path d="M 1.046875 0 C 0.898438 0 0.828125 -0.078125 0.828125 -0.234375 L 0.828125 -9.234375 C 0.828125 -9.390625 0.898438 -9.46875 1.046875 -9.46875 L 2.5 -9.46875 C 2.65625 -9.46875 2.734375 -9.390625 2.734375 -9.234375 L 2.734375 -1.71875 C 2.734375 -1.664062 2.757812 -1.640625 2.8125 -1.640625 L 7.15625 -1.640625 C 7.300781 -1.640625 7.375 -1.5625 7.375 -1.40625 L 7.375 -0.234375 C 7.375 -0.078125 7.300781 0 7.15625 0 Z M 1.046875 0 "/></g></g></g><g fill="#33b5a0" fill-opacity="1"><g transform="translate(107.318985, 217.076096)"><g>
    <path d="M 4.25 0.109375 C 3.5625 0.109375 2.953125 -0.0234375 2.421875 -0.296875 C 1.898438 -0.566406 1.488281 -0.945312 1.1875 -1.4375 C 0.894531 -1.925781 0.75 -2.492188 0.75 -3.140625 L 0.75 -9.234375 C 0.75 -9.390625 0.828125 -9.46875 0.984375 -9.46875 L 2.4375 -9.46875 C 2.582031 -9.46875 2.65625 -9.390625 2.65625 -9.234375 L 2.65625 -3.125 C 2.65625 -2.644531 2.800781 -2.257812 3.09375 -1.96875 C 3.394531 -1.675781 3.78125 -1.53125 4.25 -1.53125 C 4.726562 -1.53125 5.113281 -1.675781 5.40625 -1.96875 C 5.707031 -2.257812 5.859375 -2.644531 5.859375 -3.125 L 5.859375 -9.234375 C 5.859375 -9.390625 5.929688 -9.46875 6.078125 -9.46875 L 7.53125 -9.46875 C 7.6875 -9.46875 7.765625 -9.390625 7.765625 -9.234375 L 7.765625 -3.140625 C 7.765625 -2.492188 7.613281 -1.925781 7.3125 -1.4375 C 7.019531 -0.945312 6.609375 -0.566406 6.078125 -0.296875 C 5.554688 -0.0234375 4.945312 0.109375 4.25 0.109375 Z M 4.25 0.109375 "/></g></g></g><g fill="#33b5a0" fill-opacity="1"><g transform="translate(120.745839, 217.076096)"><g>
    <path d="M 4.15625 0.109375 C 3.445312 0.109375 2.828125 -0.0234375 2.296875 -0.296875 C 1.765625 -0.578125 1.351562 -0.960938 1.0625 -1.453125 C 0.78125 -1.953125 0.640625 -2.523438 0.640625 -3.171875 L 0.640625 -6.296875 C 0.640625 -6.941406 0.78125 -7.515625 1.0625 -8.015625 C 1.351562 -8.515625 1.765625 -8.894531 2.296875 -9.15625 C 2.828125 -9.425781 3.445312 -9.5625 4.15625 -9.5625 C 4.84375 -9.5625 5.445312 -9.429688 5.96875 -9.171875 C 6.5 -8.921875 6.910156 -8.554688 7.203125 -8.078125 C 7.503906 -7.609375 7.65625 -7.066406 7.65625 -6.453125 C 7.65625 -6.367188 7.582031 -6.316406 7.4375 -6.296875 L 5.984375 -6.203125 L 5.9375 -6.203125 C 5.8125 -6.203125 5.75 -6.222656 5.75 -6.265625 L 5.75 -6.359375 C 5.75 -6.828125 5.597656 -7.207031 5.296875 -7.5 C 5.003906 -7.789062 4.625 -7.9375 4.15625 -7.9375 C 3.664062 -7.9375 3.273438 -7.789062 2.984375 -7.5 C 2.691406 -7.207031 2.546875 -6.828125 2.546875 -6.359375 L 2.546875 -3.09375 C 2.546875 -2.625 2.691406 -2.242188 2.984375 -1.953125 C 3.273438 -1.671875 3.664062 -1.53125 4.15625 -1.53125 C 4.625 -1.53125 5.003906 -1.671875 5.296875 -1.953125 C 5.597656 -2.242188 5.75 -2.625 5.75 -3.09375 C 5.75 -3.132812 5.765625 -3.171875 5.796875 -3.203125 C 5.835938 -3.234375 5.894531 -3.25 5.96875 -3.25 L 7.421875 -3.171875 C 7.578125 -3.160156 7.65625 -3.140625 7.65625 -3.109375 L 7.65625 -3.046875 C 7.65625 -2.421875 7.503906 -1.867188 7.203125 -1.390625 C 6.910156 -0.910156 6.5 -0.539062 5.96875 -0.28125 C 5.445312 -0.0195312 4.84375 0.109375 4.15625 0.109375 Z M 4.15625 0.109375 "/></g></g></g><g fill="#33b5a0" fill-opacity="1"><g transform="translate(133.889083, 217.076096)"><g>
    <path d="M 1.046875 0 C 0.898438 0 0.828125 -0.078125 0.828125 -0.234375 L 0.828125 -9.234375 C 0.828125 -9.390625 0.898438 -9.46875 1.046875 -9.46875 L 2.5 -9.46875 C 2.65625 -9.46875 2.734375 -9.390625 2.734375 -9.234375 L 2.734375 -0.234375 C 2.734375 -0.078125 2.65625 0 2.5 0 Z M 1.046875 0 "/></g></g></g><g fill="#33b5a0" fill-opacity="1"><g transform="translate(142.373065, 217.076096)"><g>
    <path d="M 4.1875 0.15625 C 3.488281 0.15625 2.867188 0.0078125 2.328125 -0.28125 C 1.796875 -0.570312 1.378906 -0.972656 1.078125 -1.484375 C 0.785156 -2.003906 0.640625 -2.601562 0.640625 -3.28125 L 0.640625 -6.171875 C 0.640625 -6.835938 0.785156 -7.425781 1.078125 -7.9375 C 1.378906 -8.457031 1.796875 -8.859375 2.328125 -9.140625 C 2.867188 -9.421875 3.488281 -9.5625 4.1875 -9.5625 C 4.894531 -9.5625 5.515625 -9.421875 6.046875 -9.140625 C 6.585938 -8.859375 7.007812 -8.457031 7.3125 -7.9375 C 7.613281 -7.425781 7.765625 -6.835938 7.765625 -6.171875 L 7.765625 -3.28125 C 7.765625 -2.601562 7.613281 -2.003906 7.3125 -1.484375 C 7.007812 -0.960938 6.585938 -0.554688 6.046875 -0.265625 C 5.515625 0.015625 4.894531 0.15625 4.1875 0.15625 Z M 4.1875 -1.484375 C 4.6875 -1.484375 5.085938 -1.640625 5.390625 -1.953125 C 5.703125 -2.273438 5.859375 -2.695312 5.859375 -3.21875 L 5.859375 -6.1875 C 5.859375 -6.707031 5.707031 -7.128906 5.40625 -7.453125 C 5.101562 -7.773438 4.695312 -7.9375 4.1875 -7.9375 C 3.695312 -7.9375 3.300781 -7.773438 3 -7.453125 C 2.695312 -7.128906 2.546875 -6.707031 2.546875 -6.1875 L 2.546875 -3.21875 C 2.546875 -2.695312 2.695312 -2.273438 3 -1.953125 C 3.300781 -1.640625 3.695312 -1.484375 4.1875 -1.484375 Z M 4.1875 -1.484375 "/></g></g></g><g fill="#33b5a0" fill-opacity="1"><g transform="translate(155.691881, 217.076096)"><g>
    <path d="M 1.046875 0 C 0.898438 0 0.828125 -0.078125 0.828125 -0.234375 L 0.828125 -9.234375 C 0.828125 -9.390625 0.898438 -9.46875 1.046875 -9.46875 L 2.453125 -9.46875 C 2.566406 -9.46875 2.65625 -9.414062 2.71875 -9.3125 L 6.09375 -3.6875 C 6.113281 -3.65625 6.132812 -3.640625 6.15625 -3.640625 C 6.175781 -3.648438 6.1875 -3.675781 6.1875 -3.71875 L 6.1875 -9.234375 C 6.1875 -9.390625 6.265625 -9.46875 6.421875 -9.46875 L 7.84375 -9.46875 C 7.988281 -9.46875 8.0625 -9.390625 8.0625 -9.234375 L 8.0625 -0.234375 C 8.0625 -0.078125 7.988281 0 7.84375 0 L 6.453125 0 C 6.347656 0 6.257812 -0.0507812 6.1875 -0.15625 L 2.796875 -5.84375 C 2.773438 -5.875 2.753906 -5.882812 2.734375 -5.875 C 2.710938 -5.863281 2.703125 -5.84375 2.703125 -5.8125 L 2.71875 -0.234375 C 2.71875 -0.078125 2.640625 0 2.484375 0 Z M 1.046875 0 "/></g></g></g><g fill="#33b5a0" fill-opacity="1"><g transform="translate(169.510377, 217.076096)"><g>
    <path d="M 7.390625 -8.0625 C 7.390625 -7.90625 7.3125 -7.828125 7.15625 -7.828125 L 2.8125 -7.828125 C 2.757812 -7.828125 2.734375 -7.800781 2.734375 -7.75 L 2.734375 -5.671875 C 2.734375 -5.617188 2.757812 -5.59375 2.8125 -5.59375 L 5.640625 -5.59375 C 5.785156 -5.59375 5.859375 -5.515625 5.859375 -5.359375 L 5.859375 -4.1875 C 5.859375 -4.03125 5.785156 -3.953125 5.640625 -3.953125 L 2.8125 -3.953125 C 2.757812 -3.953125 2.734375 -3.925781 2.734375 -3.875 L 2.734375 -1.71875 C 2.734375 -1.664062 2.757812 -1.640625 2.8125 -1.640625 L 7.15625 -1.640625 C 7.3125 -1.640625 7.390625 -1.5625 7.390625 -1.40625 L 7.390625 -0.234375 C 7.390625 -0.078125 7.3125 0 7.15625 0 L 1.046875 0 C 0.898438 0 0.828125 -0.078125 0.828125 -0.234375 L 0.828125 -9.234375 C 0.828125 -9.390625 0.898438 -9.46875 1.046875 -9.46875 L 7.15625 -9.46875 C 7.3125 -9.46875 7.390625 -9.390625 7.390625 -9.234375 Z M 7.390625 -8.0625 "/></g></g></g><g fill="#33b5a0" fill-opacity="1"><g transform="translate(182.32949, 217.076096)"><g>
    <path d="M 4.03125 0.109375 C 3.320312 0.109375 2.703125 -0.00390625 2.171875 -0.234375 C 1.640625 -0.472656 1.226562 -0.800781 0.9375 -1.21875 C 0.65625 -1.644531 0.515625 -2.144531 0.515625 -2.71875 L 0.515625 -2.953125 C 0.515625 -3.097656 0.59375 -3.171875 0.75 -3.171875 L 2.15625 -3.171875 C 2.3125 -3.171875 2.390625 -3.113281 2.390625 -3 L 2.390625 -2.8125 C 2.390625 -2.445312 2.550781 -2.140625 2.875 -1.890625 C 3.207031 -1.648438 3.640625 -1.53125 4.171875 -1.53125 C 4.648438 -1.53125 5.003906 -1.628906 5.234375 -1.828125 C 5.460938 -2.035156 5.578125 -2.285156 5.578125 -2.578125 C 5.578125 -2.796875 5.503906 -2.976562 5.359375 -3.125 C 5.222656 -3.28125 5.03125 -3.410156 4.78125 -3.515625 C 4.539062 -3.628906 4.148438 -3.785156 3.609375 -3.984375 C 2.992188 -4.191406 2.476562 -4.40625 2.0625 -4.625 C 1.65625 -4.84375 1.304688 -5.132812 1.015625 -5.5 C 0.722656 -5.875 0.578125 -6.335938 0.578125 -6.890625 C 0.578125 -7.429688 0.71875 -7.90625 1 -8.3125 C 1.28125 -8.71875 1.671875 -9.023438 2.171875 -9.234375 C 2.671875 -9.453125 3.238281 -9.5625 3.875 -9.5625 C 4.5625 -9.5625 5.175781 -9.441406 5.71875 -9.203125 C 6.257812 -8.960938 6.679688 -8.625 6.984375 -8.1875 C 7.285156 -7.75 7.4375 -7.238281 7.4375 -6.65625 L 7.4375 -6.53125 C 7.4375 -6.375 7.359375 -6.296875 7.203125 -6.296875 L 5.78125 -6.296875 C 5.632812 -6.296875 5.5625 -6.34375 5.5625 -6.4375 L 5.5625 -6.5625 C 5.5625 -6.945312 5.40625 -7.269531 5.09375 -7.53125 C 4.78125 -7.800781 4.351562 -7.9375 3.8125 -7.9375 C 3.375 -7.9375 3.035156 -7.84375 2.796875 -7.65625 C 2.566406 -7.476562 2.453125 -7.234375 2.453125 -6.921875 C 2.453125 -6.691406 2.519531 -6.5 2.65625 -6.34375 C 2.789062 -6.195312 2.992188 -6.0625 3.265625 -5.9375 C 3.546875 -5.8125 3.976562 -5.648438 4.5625 -5.453125 C 5.1875 -5.210938 5.679688 -5.003906 6.046875 -4.828125 C 6.421875 -4.648438 6.753906 -4.378906 7.046875 -4.015625 C 7.335938 -3.660156 7.484375 -3.203125 7.484375 -2.640625 C 7.484375 -2.085938 7.34375 -1.601562 7.0625 -1.1875 C 6.78125 -0.769531 6.378906 -0.445312 5.859375 -0.21875 C 5.335938 0 4.726562 0.109375 4.03125 0.109375 Z M 4.03125 0.109375 "/></g></g></g><g fill="#33b5a0" fill-opacity="1"><g transform="translate(195.256652, 217.076096)"><g/></g></g><g fill="#33b5a0" fill-opacity="1"><g transform="translate(202.889798, 217.076096)"><g>
    <path d="M 1.046875 0 C 0.898438 0 0.828125 -0.078125 0.828125 -0.234375 L 0.828125 -9.234375 C 0.828125 -9.390625 0.898438 -9.46875 1.046875 -9.46875 L 4.359375 -9.46875 C 5.035156 -9.46875 5.628906 -9.347656 6.140625 -9.109375 C 6.648438 -8.867188 7.046875 -8.53125 7.328125 -8.09375 C 7.609375 -7.664062 7.75 -7.164062 7.75 -6.59375 L 7.75 -2.859375 C 7.75 -2.296875 7.609375 -1.796875 7.328125 -1.359375 C 7.046875 -0.929688 6.648438 -0.597656 6.140625 -0.359375 C 5.628906 -0.117188 5.035156 0 4.359375 0 Z M 2.734375 -1.71875 C 2.734375 -1.664062 2.757812 -1.640625 2.8125 -1.640625 L 4.4375 -1.640625 C 4.851562 -1.640625 5.1875 -1.773438 5.4375 -2.046875 C 5.695312 -2.328125 5.832031 -2.703125 5.84375 -3.171875 L 5.84375 -6.28125 C 5.84375 -6.75 5.710938 -7.125 5.453125 -7.40625 C 5.191406 -7.6875 4.847656 -7.828125 4.421875 -7.828125 L 2.8125 -7.828125 C 2.757812 -7.828125 2.734375 -7.800781 2.734375 -7.75 Z M 2.734375 -1.71875 "/></g></g></g><g fill="#33b5a0" fill-opacity="1"><g transform="translate(216.168093, 217.076096)"><g>
    <path d="M 1.046875 0 C 0.898438 0 0.828125 -0.078125 0.828125 -0.234375 L 0.828125 -9.234375 C 0.828125 -9.390625 0.898438 -9.46875 1.046875 -9.46875 L 2.5 -9.46875 C 2.65625 -9.46875 2.734375 -9.390625 2.734375 -9.234375 L 2.734375 -0.234375 C 2.734375 -0.078125 2.65625 0 2.5 0 Z M 1.046875 0 "/></g></g></g><g fill="#33b5a0" fill-opacity="1"><g transform="translate(224.652069, 217.076096)"><g>
    <path d="M 4.15625 0.109375 C 3.457031 0.109375 2.84375 -0.03125 2.3125 -0.3125 C 1.78125 -0.59375 1.367188 -0.984375 1.078125 -1.484375 C 0.785156 -1.984375 0.640625 -2.5625 0.640625 -3.21875 L 0.640625 -6.25 C 0.640625 -6.90625 0.785156 -7.484375 1.078125 -7.984375 C 1.367188 -8.492188 1.78125 -8.882812 2.3125 -9.15625 C 2.84375 -9.425781 3.457031 -9.5625 4.15625 -9.5625 C 4.832031 -9.5625 5.4375 -9.425781 5.96875 -9.15625 C 6.5 -8.894531 6.910156 -8.53125 7.203125 -8.0625 C 7.492188 -7.59375 7.640625 -7.078125 7.640625 -6.515625 L 7.640625 -6.484375 C 7.640625 -6.328125 7.5625 -6.25 7.40625 -6.25 L 5.953125 -6.25 C 5.890625 -6.25 5.835938 -6.257812 5.796875 -6.28125 C 5.753906 -6.3125 5.734375 -6.335938 5.734375 -6.359375 L 5.734375 -6.453125 C 5.734375 -6.867188 5.585938 -7.21875 5.296875 -7.5 C 5.003906 -7.789062 4.625 -7.9375 4.15625 -7.9375 C 3.664062 -7.9375 3.273438 -7.785156 2.984375 -7.484375 C 2.691406 -7.179688 2.546875 -6.785156 2.546875 -6.296875 L 2.546875 -3.15625 C 2.546875 -2.675781 2.703125 -2.285156 3.015625 -1.984375 C 3.328125 -1.679688 3.726562 -1.53125 4.21875 -1.53125 C 4.6875 -1.53125 5.054688 -1.648438 5.328125 -1.890625 C 5.609375 -2.140625 5.75 -2.488281 5.75 -2.9375 L 5.75 -3.53125 C 5.75 -3.582031 5.722656 -3.609375 5.671875 -3.609375 L 4.25 -3.609375 C 4.09375 -3.609375 4.015625 -3.6875 4.015625 -3.84375 L 4.015625 -4.953125 C 4.015625 -5.097656 4.09375 -5.171875 4.25 -5.171875 L 7.40625 -5.171875 C 7.5625 -5.171875 7.640625 -5.097656 7.640625 -4.953125 L 7.640625 -3.234375 C 7.640625 -2.546875 7.492188 -1.945312 7.203125 -1.4375 C 6.910156 -0.9375 6.5 -0.550781 5.96875 -0.28125 C 5.445312 -0.0195312 4.84375 0.109375 4.15625 0.109375 Z M 4.15625 0.109375 "/></g></g></g><g fill="#33b5a0" fill-opacity="1"><g transform="translate(237.781798, 217.076096)"><g><path d="M 1.046875 0 C 0.898438 0 0.828125 -0.078125 0.828125 -0.234375 L 0.828125 -9.234375 C 0.828125 -9.390625 0.898438 -9.46875 1.046875 -9.46875 L 2.5 -9.46875 C 2.65625 -9.46875 2.734375 -9.390625 2.734375 -9.234375 L 2.734375 -0.234375 C 2.734375 -0.078125 2.65625 0 2.5 0 Z M 1.046875 0 "/></g></g></g><g fill="#33b5a0" fill-opacity="1"><g transform="translate(246.265774, 217.076096)"><g>
    <path d="M 7.28125 -9.46875 C 7.4375 -9.46875 7.515625 -9.390625 7.515625 -9.234375 L 7.515625 -8.046875 C 7.515625 -7.890625 7.4375 -7.8125 7.28125 -7.8125 L 4.953125 -7.8125 C 4.890625 -7.8125 4.859375 -7.785156 4.859375 -7.734375 L 4.859375 -0.234375 C 4.859375 -0.078125 4.785156 0 4.640625 0 L 3.1875 0 C 3.03125 0 2.953125 -0.078125 2.953125 -0.234375 L 2.953125 -7.734375 C 2.953125 -7.785156 2.925781 -7.8125 2.875 -7.8125 L 0.609375 -7.8125 C 0.453125 -7.8125 0.375 -7.890625 0.375 -8.046875 L 0.375 -9.234375 C 0.375 -9.390625 0.453125 -9.46875 0.609375 -9.46875 Z M 7.28125 -9.46875 "/></g></g></g><g fill="#33b5a0" fill-opacity="1"><g transform="translate(259.098407, 217.076096)"><g>
    <path d="M 6.90625 0 C 6.78125 0 6.695312 -0.0625 6.65625 -0.1875 L 6.265625 -1.453125 C 6.253906 -1.492188 6.226562 -1.515625 6.1875 -1.515625 L 2.875 -1.515625 C 2.832031 -1.515625 2.804688 -1.492188 2.796875 -1.453125 L 2.421875 -0.1875 C 2.378906 -0.0625 2.289062 0 2.15625 0 L 0.59375 0 C 0.507812 0 0.445312 -0.0234375 0.40625 -0.078125 C 0.375 -0.128906 0.375 -0.1875 0.40625 -0.25 L 3.28125 -9.265625 C 3.332031 -9.398438 3.421875 -9.46875 3.546875 -9.46875 L 5.53125 -9.46875 C 5.65625 -9.46875 5.738281 -9.398438 5.78125 -9.265625 L 8.65625 -0.25 C 8.664062 -0.238281 8.671875 -0.210938 8.671875 -0.171875 C 8.671875 -0.117188 8.648438 -0.078125 8.609375 -0.046875 C 8.578125 -0.015625 8.53125 0 8.46875 0 Z M 3.265625 -3.078125 C 3.253906 -3.015625 3.28125 -2.984375 3.34375 -2.984375 L 5.734375 -2.984375 C 5.785156 -2.984375 5.804688 -3.015625 5.796875 -3.078125 L 4.578125 -7.203125 C 4.566406 -7.242188 4.550781 -7.265625 4.53125 -7.265625 C 4.507812 -7.265625 4.488281 -7.242188 4.46875 -7.203125 Z M 3.265625 -3.078125 "/></g></g></g><g fill="#33b5a0" fill-opacity="1"><g transform="translate(273.092475, 217.076096)"><g>
    <path d="M 1.046875 0 C 0.898438 0 0.828125 -0.078125 0.828125 -0.234375 L 0.828125 -9.234375 C 0.828125 -9.390625 0.898438 -9.46875 1.046875 -9.46875 L 2.5 -9.46875 C 2.65625 -9.46875 2.734375 -9.390625 2.734375 -9.234375 L 2.734375 -1.71875 C 2.734375 -1.664062 2.757812 -1.640625 2.8125 -1.640625 L 7.15625 -1.640625 C 7.300781 -1.640625 7.375 -1.5625 7.375 -1.40625 L 7.375 -0.234375 C 7.375 -0.078125 7.300781 0 7.15625 0 Z M 1.046875 0 "/></g></g></g><g fill="#33b5a0" fill-opacity="1"><g transform="translate(285.749526, 217.076096)"><g>
    <path d="M 7.390625 -8.0625 C 7.390625 -7.90625 7.3125 -7.828125 7.15625 -7.828125 L 2.8125 -7.828125 C 2.757812 -7.828125 2.734375 -7.800781 2.734375 -7.75 L 2.734375 -5.671875 C 2.734375 -5.617188 2.757812 -5.59375 2.8125 -5.59375 L 5.640625 -5.59375 C 5.785156 -5.59375 5.859375 -5.515625 5.859375 -5.359375 L 5.859375 -4.1875 C 5.859375 -4.03125 5.785156 -3.953125 5.640625 -3.953125 L 2.8125 -3.953125 C 2.757812 -3.953125 2.734375 -3.925781 2.734375 -3.875 L 2.734375 -1.71875 C 2.734375 -1.664062 2.757812 -1.640625 2.8125 -1.640625 L 7.15625 -1.640625 C 7.3125 -1.640625 7.390625 -1.5625 7.390625 -1.40625 L 7.390625 -0.234375 C 7.390625 -0.078125 7.3125 0 7.15625 0 L 1.046875 0 C 0.898438 0 0.828125 -0.078125 0.828125 -0.234375 L 0.828125 -9.234375 C 0.828125 -9.390625 0.898438 -9.46875 1.046875 -9.46875 L 7.15625 -9.46875 C 7.3125 -9.46875 7.390625 -9.390625 7.390625 -9.234375 Z M 7.390625 -8.0625 "/></g></g></g><g fill="#33b5a0" fill-opacity="1"><g transform="translate(298.568639, 217.076096)"><g>
    <path d="M 4.03125 0.109375 C 3.320312 0.109375 2.703125 -0.00390625 2.171875 -0.234375 C 1.640625 -0.472656 1.226562 -0.800781 0.9375 -1.21875 C 0.65625 -1.644531 0.515625 -2.144531 0.515625 -2.71875 L 0.515625 -2.953125 C 0.515625 -3.097656 0.59375 -3.171875 0.75 -3.171875 L 2.15625 -3.171875 C 2.3125 -3.171875 2.390625 -3.113281 2.390625 -3 L 2.390625 -2.8125 C 2.390625 -2.445312 2.550781 -2.140625 2.875 -1.890625 C 3.207031 -1.648438 3.640625 -1.53125 4.171875 -1.53125 C 4.648438 -1.53125 5.003906 -1.628906 5.234375 -1.828125 C 5.460938 -2.035156 5.578125 -2.285156 5.578125 -2.578125 C 5.578125 -2.796875 5.503906 -2.976562 5.359375 -3.125 C 5.222656 -3.28125 5.03125 -3.410156 4.78125 -3.515625 C 4.539062 -3.628906 4.148438 -3.785156 3.609375 -3.984375 C 2.992188 -4.191406 2.476562 -4.40625 2.0625 -4.625 C 1.65625 -4.84375 1.304688 -5.132812 1.015625 -5.5 C 0.722656 -5.875 0.578125 -6.335938 0.578125 -6.890625 C 0.578125 -7.429688 0.71875 -7.90625 1 -8.3125 C 1.28125 -8.71875 1.671875 -9.023438 2.171875 -9.234375 C 2.671875 -9.453125 3.238281 -9.5625 3.875 -9.5625 C 4.5625 -9.5625 5.175781 -9.441406 5.71875 -9.203125 C 6.257812 -8.960938 6.679688 -8.625 6.984375 -8.1875 C 7.285156 -7.75 7.4375 -7.238281 7.4375 -6.65625 L 7.4375 -6.53125 C 7.4375 -6.375 7.359375 -6.296875 7.203125 -6.296875 L 5.78125 -6.296875 C 5.632812 -6.296875 5.5625 -6.34375 5.5625 -6.4375 L 5.5625 -6.5625 C 5.5625 -6.945312 5.40625 -7.269531 5.09375 -7.53125 C 4.78125 -7.800781 4.351562 -7.9375 3.8125 -7.9375 C 3.375 -7.9375 3.035156 -7.84375 2.796875 -7.65625 C 2.566406 -7.476562 2.453125 -7.234375 2.453125 -6.921875 C 2.453125 -6.691406 2.519531 -6.5 2.65625 -6.34375 C 2.789062 -6.195312 2.992188 -6.0625 3.265625 -5.9375 C 3.546875 -5.8125 3.976562 -5.648438 4.5625 -5.453125 C 5.1875 -5.210938 5.679688 -5.003906 6.046875 -4.828125 C 6.421875 -4.648438 6.753906 -4.378906 7.046875 -4.015625 C 7.335938 -3.660156 7.484375 -3.203125 7.484375 -2.640625 C 7.484375 -2.085938 7.34375 -1.601562 7.0625 -1.1875 C 6.78125 -0.769531 6.378906 -0.445312 5.859375 -0.21875 C 5.335938 0 4.726562 0.109375 4.03125 0.109375 Z M 4.03125 0.109375 "/></g></g></g>
</svg>